<mxfile host="65bd71144e">
    <diagram id="dNFkojfkoE8Q-ND4W3VJ" name="Page-1">
        <mxGraphModel dx="-1403" dy="24" grid="1" gridSize="10" guides="1" tooltips="1" connect="1" arrows="1" fold="1" page="1" pageScale="1" pageWidth="850" pageHeight="1100" background="#ffffff" math="0" shadow="0">
            <root>
                <mxCell id="0"/>
                <mxCell id="1" parent="0"/>
                <mxCell id="190" value="Network schedule" style="text;html=1;strokeColor=none;fillColor=none;align=left;verticalAlign=middle;whiteSpace=wrap;rounded=0;fontSize=20;fontColor=#000000;fontFamily=Helvetica;spacing=0;" parent="1" vertex="1">
                    <mxGeometry x="2620" y="1355" width="100" height="60" as="geometry"/>
                </mxCell>
                <mxCell id="191" value="Network process" style="text;html=1;strokeColor=none;fillColor=none;align=left;verticalAlign=middle;whiteSpace=wrap;rounded=0;fontSize=20;fontColor=#000000;fontFamily=Helvetica;spacing=0;" parent="1" vertex="1">
                    <mxGeometry x="2620" y="1435" width="100" height="60" as="geometry"/>
                </mxCell>
                <mxCell id="192" value="DQC user process" style="text;html=1;strokeColor=none;fillColor=none;align=left;verticalAlign=middle;whiteSpace=wrap;rounded=0;fontSize=20;fontColor=#000000;fontFamily=Helvetica;spacing=0;" parent="1" vertex="1">
                    <mxGeometry x="2620" y="1515" width="100" height="60" as="geometry"/>
                </mxCell>
                <mxCell id="193" style="edgeStyle=orthogonalEdgeStyle;rounded=1;orthogonalLoop=1;jettySize=auto;html=1;strokeWidth=2;endArrow=none;endFill=0;" parent="1" edge="1">
                    <mxGeometry relative="1" as="geometry">
                        <mxPoint x="3370" y="1490" as="targetPoint"/>
                        <mxPoint x="2750" y="1490" as="sourcePoint"/>
                    </mxGeometry>
                </mxCell>
                <mxCell id="194" style="edgeStyle=orthogonalEdgeStyle;rounded=1;orthogonalLoop=1;jettySize=auto;html=1;strokeWidth=2;endArrow=none;endFill=0;" parent="1" edge="1">
                    <mxGeometry relative="1" as="geometry">
                        <mxPoint x="3370" y="1570" as="targetPoint"/>
                        <mxPoint x="2750" y="1570" as="sourcePoint"/>
                    </mxGeometry>
                </mxCell>
                <mxCell id="195" value="Time bin N" style="rounded=0;whiteSpace=wrap;html=1;strokeWidth=2;fillColor=#f5f5f5;strokeColor=#666666;fontFamily=Helvetica;fontSize=19;" parent="1" vertex="1">
                    <mxGeometry x="2875" y="1370" width="120" height="40" as="geometry"/>
                </mxCell>
                <mxCell id="196" value="Time bin N+1" style="rounded=0;whiteSpace=wrap;html=1;strokeWidth=2;fillColor=#f5f5f5;strokeColor=#666666;fontFamily=Helvetica;fontSize=19;" parent="1" vertex="1">
                    <mxGeometry x="2995" y="1370" width="120" height="40" as="geometry"/>
                </mxCell>
                <mxCell id="197" value="C1" style="rounded=0;whiteSpace=wrap;html=1;strokeWidth=2;fillColor=#d5e8d4;strokeColor=#82b366;" parent="1" vertex="1">
                    <mxGeometry x="2915" y="1529.38" width="40" height="40" as="geometry"/>
                </mxCell>
                <mxCell id="198" value="" style="shape=card;whiteSpace=wrap;html=1;size=100;rotation=-90;fillColor=#dae8fc;strokeColor=#6c8ebf;strokeWidth=2;" parent="1" vertex="1">
                    <mxGeometry x="2822.5" y="1407.5" width="40" height="125" as="geometry"/>
                </mxCell>
                <mxCell id="199" value="LGT user process" style="text;html=1;strokeColor=none;fillColor=none;align=left;verticalAlign=middle;whiteSpace=wrap;rounded=0;fontSize=20;fontColor=#000000;fontFamily=Helvetica;spacing=0;" parent="1" vertex="1">
                    <mxGeometry x="2620" y="1595" width="100" height="60" as="geometry"/>
                </mxCell>
                <mxCell id="200" style="edgeStyle=orthogonalEdgeStyle;rounded=1;orthogonalLoop=1;jettySize=auto;html=1;strokeWidth=2;endArrow=none;endFill=0;" parent="1" edge="1">
                    <mxGeometry relative="1" as="geometry">
                        <mxPoint x="3370" y="1650" as="targetPoint"/>
                        <mxPoint x="2750" y="1650" as="sourcePoint"/>
                    </mxGeometry>
                </mxCell>
                <mxCell id="201" value="L1" style="rounded=0;whiteSpace=wrap;html=1;strokeWidth=2;fillColor=#d5e8d4;strokeColor=#82b366;" parent="1" vertex="1">
                    <mxGeometry x="2955" y="1610" width="40" height="40" as="geometry"/>
                </mxCell>
                <mxCell id="202" value="" style="html=1;aspect=fixed;strokeColor=none;shadow=0;align=center;verticalAlign=top;shape=mxgraph.gcp2.check;fontFamily=Times New Roman;fontSize=20;fillColor=#6C8EBF;" parent="1" vertex="1">
                    <mxGeometry x="2905.32" y="1425" width="25" height="20" as="geometry"/>
                </mxCell>
                <mxCell id="203" style="edgeStyle=orthogonalEdgeStyle;rounded=1;orthogonalLoop=1;jettySize=auto;html=1;strokeWidth=2;" parent="1" edge="1">
                    <mxGeometry relative="1" as="geometry">
                        <mxPoint x="2915.25" y="1509.38" as="targetPoint"/>
                        <mxPoint x="2915" y="1569.38" as="sourcePoint"/>
                        <Array as="points">
                            <mxPoint x="2915" y="1539"/>
                            <mxPoint x="2915" y="1539"/>
                        </Array>
                    </mxGeometry>
                </mxCell>
                <mxCell id="204" value="Resume C1" style="text;html=1;align=center;verticalAlign=middle;whiteSpace=wrap;rounded=0;" parent="1" vertex="1">
                    <mxGeometry x="2845" y="1495" width="70" height="30" as="geometry"/>
                </mxCell>
                <mxCell id="205" value="" style="html=1;aspect=fixed;strokeColor=none;shadow=0;align=center;verticalAlign=top;shape=mxgraph.gcp2.check;fontFamily=Times New Roman;fontSize=20;fillColor=#82B366;" parent="1" vertex="1">
                    <mxGeometry x="2955" y="1505" width="25" height="20" as="geometry"/>
                </mxCell>
                <mxCell id="206" value="" style="html=1;aspect=fixed;strokeColor=none;shadow=0;align=center;verticalAlign=top;shape=mxgraph.gcp2.check;fontFamily=Times New Roman;fontSize=20;fillColor=#82B366;" parent="1" vertex="1">
                    <mxGeometry x="2995" y="1585" width="25" height="20" as="geometry"/>
                </mxCell>
                <mxCell id="207" value="Network process" style="text;html=1;strokeColor=none;fillColor=none;align=left;verticalAlign=middle;whiteSpace=wrap;rounded=0;fontSize=20;fontColor=#000000;fontFamily=Helvetica;spacing=0;" parent="1" vertex="1">
                    <mxGeometry x="2620" y="1194.37" width="100" height="60" as="geometry"/>
                </mxCell>
                <mxCell id="208" value="DQC user process" style="text;html=1;strokeColor=none;fillColor=none;align=left;verticalAlign=middle;whiteSpace=wrap;rounded=0;fontSize=20;fontColor=#000000;fontFamily=Helvetica;spacing=0;" parent="1" vertex="1">
                    <mxGeometry x="2620" y="1274.37" width="100" height="60" as="geometry"/>
                </mxCell>
                <mxCell id="209" style="edgeStyle=orthogonalEdgeStyle;rounded=1;orthogonalLoop=1;jettySize=auto;html=1;strokeWidth=2;endArrow=none;endFill=0;" parent="1" edge="1">
                    <mxGeometry relative="1" as="geometry">
                        <mxPoint x="3370" y="1249" as="targetPoint"/>
                        <mxPoint x="2750" y="1249.37" as="sourcePoint"/>
                        <Array as="points">
                            <mxPoint x="3220" y="1249"/>
                            <mxPoint x="3220" y="1249"/>
                        </Array>
                    </mxGeometry>
                </mxCell>
                <mxCell id="210" style="edgeStyle=orthogonalEdgeStyle;rounded=1;orthogonalLoop=1;jettySize=auto;html=1;strokeWidth=2;endArrow=none;endFill=0;" parent="1" edge="1">
                    <mxGeometry relative="1" as="geometry">
                        <mxPoint x="3370" y="1329" as="targetPoint"/>
                        <mxPoint x="2750" y="1329.37" as="sourcePoint"/>
                        <Array as="points">
                            <mxPoint x="3220" y="1330"/>
                            <mxPoint x="3220" y="1330"/>
                        </Array>
                    </mxGeometry>
                </mxCell>
                <mxCell id="211" value="S1" style="rounded=0;whiteSpace=wrap;html=1;strokeWidth=2;fillColor=#d5e8d4;strokeColor=#82b366;" parent="1" vertex="1">
                    <mxGeometry x="2914.71" y="1289.0700000000002" width="40" height="40" as="geometry"/>
                </mxCell>
                <mxCell id="212" value="" style="shape=card;whiteSpace=wrap;html=1;size=100;rotation=-90;fillColor=#dae8fc;strokeColor=#6c8ebf;strokeWidth=2;" parent="1" vertex="1">
                    <mxGeometry x="2823.29" y="1167.03" width="40" height="124.69" as="geometry"/>
                </mxCell>
                <mxCell id="213" value="" style="html=1;aspect=fixed;strokeColor=none;shadow=0;align=center;verticalAlign=top;shape=mxgraph.gcp2.check;fontFamily=Times New Roman;fontSize=20;fillColor=#6C8EBF;" parent="1" vertex="1">
                    <mxGeometry x="2905.32" y="1184.37" width="25" height="20" as="geometry"/>
                </mxCell>
                <mxCell id="214" style="edgeStyle=orthogonalEdgeStyle;rounded=1;orthogonalLoop=1;jettySize=auto;html=1;strokeWidth=2;" parent="1" edge="1">
                    <mxGeometry relative="1" as="geometry">
                        <mxPoint x="2914.96" y="1269.0700000000002" as="targetPoint"/>
                        <mxPoint x="2914.71" y="1329.0700000000002" as="sourcePoint"/>
                        <Array as="points">
                            <mxPoint x="2915" y="1299"/>
                            <mxPoint x="2915" y="1299"/>
                        </Array>
                    </mxGeometry>
                </mxCell>
                <mxCell id="215" value="Resume S1" style="text;html=1;align=center;verticalAlign=middle;whiteSpace=wrap;rounded=0;" parent="1" vertex="1">
                    <mxGeometry x="2835.32" y="1254.37" width="70" height="30" as="geometry"/>
                </mxCell>
                <mxCell id="216" value="" style="html=1;aspect=fixed;strokeColor=none;shadow=0;align=center;verticalAlign=top;shape=mxgraph.gcp2.check;fontFamily=Times New Roman;fontSize=20;fillColor=#82B366;" parent="1" vertex="1">
                    <mxGeometry x="2954.71" y="1264.69" width="25" height="20" as="geometry"/>
                </mxCell>
                <mxCell id="217" value="Submit S2" style="text;html=1;align=center;verticalAlign=middle;whiteSpace=wrap;rounded=0;" parent="1" vertex="1">
                    <mxGeometry x="2990.83" y="1250" width="60" height="30" as="geometry"/>
                </mxCell>
                <mxCell id="218" value="S2" style="rounded=0;whiteSpace=wrap;html=1;strokeWidth=2;fillColor=#d5e8d4;strokeColor=#82b366;" parent="1" vertex="1">
                    <mxGeometry x="2995.54" y="1289.7000000000003" width="40" height="40" as="geometry"/>
                </mxCell>
                <mxCell id="219" style="edgeStyle=orthogonalEdgeStyle;rounded=1;orthogonalLoop=1;jettySize=auto;html=1;strokeWidth=2;" parent="1" edge="1">
                    <mxGeometry relative="1" as="geometry">
                        <mxPoint x="2995.54" y="1270.9500000000003" as="targetPoint"/>
                        <mxPoint x="2995.29" y="1330.9500000000003" as="sourcePoint"/>
                        <Array as="points">
                            <mxPoint x="2995" y="1301"/>
                        </Array>
                    </mxGeometry>
                </mxCell>
                <mxCell id="220" style="edgeStyle=orthogonalEdgeStyle;rounded=1;orthogonalLoop=1;jettySize=auto;html=1;strokeWidth=2;" parent="1" edge="1">
                    <mxGeometry relative="1" as="geometry">
                        <mxPoint x="3079.39" y="1269.7000000000003" as="targetPoint"/>
                        <mxPoint x="3079.14" y="1329.7000000000003" as="sourcePoint"/>
                        <Array as="points">
                            <mxPoint x="3079" y="1300"/>
                            <mxPoint x="3079" y="1300"/>
                        </Array>
                    </mxGeometry>
                </mxCell>
                <mxCell id="221" value="Submit S1" style="text;html=1;align=center;verticalAlign=middle;whiteSpace=wrap;rounded=0;" parent="1" vertex="1">
                    <mxGeometry x="3060" y="1249.69" width="60" height="30" as="geometry"/>
                </mxCell>
                <mxCell id="222" value="Time bin N+2" style="rounded=0;whiteSpace=wrap;html=1;strokeWidth=2;fillColor=#f5f5f5;strokeColor=#666666;fontFamily=Helvetica;fontSize=19;" parent="1" vertex="1">
                    <mxGeometry x="3115" y="1370" width="120" height="40" as="geometry"/>
                </mxCell>
                <mxCell id="223" value="C1" style="rounded=0;whiteSpace=wrap;html=1;strokeWidth=2;fillColor=#d5e8d4;strokeColor=#82b366;" parent="1" vertex="1">
                    <mxGeometry x="3007.5" y="1528.7600000000002" width="40" height="40" as="geometry"/>
                </mxCell>
                <mxCell id="224" style="edgeStyle=orthogonalEdgeStyle;rounded=1;orthogonalLoop=1;jettySize=auto;html=1;strokeWidth=2;" parent="1" edge="1">
                    <mxGeometry relative="1" as="geometry">
                        <mxPoint x="3007.5" y="1509.38" as="targetPoint"/>
                        <mxPoint x="3007.25" y="1569.38" as="sourcePoint"/>
                        <Array as="points">
                            <mxPoint x="3007" y="1539"/>
                            <mxPoint x="3008" y="1539"/>
                        </Array>
                    </mxGeometry>
                </mxCell>
                <mxCell id="225" value="" style="group" parent="1" vertex="1" connectable="0">
                    <mxGeometry x="3047.5" y="1508.7600000000002" width="20" height="20" as="geometry"/>
                </mxCell>
                <mxCell id="226" value="" style="ellipse;whiteSpace=wrap;html=1;aspect=fixed;strokeWidth=2;fillColor=#82B366;fontFamily=Times New Roman;fontSize=20;align=left;strokeColor=none;" parent="225" vertex="1">
                    <mxGeometry width="20" height="20" as="geometry"/>
                </mxCell>
                <mxCell id="227" value="" style="rounded=0;whiteSpace=wrap;html=1;strokeWidth=2;fontFamily=Times New Roman;fontSize=20;align=left;strokeColor=none;fillColor=#FFFFFF;" parent="225" vertex="1">
                    <mxGeometry x="4" y="7.5" width="12" height="5" as="geometry"/>
                </mxCell>
                <mxCell id="228" value="Submit C1" style="text;html=1;align=center;verticalAlign=middle;whiteSpace=wrap;rounded=0;" parent="1" vertex="1">
                    <mxGeometry x="3007.5" y="1485" width="60" height="30" as="geometry"/>
                </mxCell>
                <mxCell id="229" value="L1" style="rounded=0;whiteSpace=wrap;html=1;strokeWidth=2;fillColor=#d5e8d4;strokeColor=#82b366;" parent="1" vertex="1">
                    <mxGeometry x="3100" y="1610" width="40" height="40" as="geometry"/>
                </mxCell>
                <mxCell id="230" style="edgeStyle=orthogonalEdgeStyle;rounded=1;orthogonalLoop=1;jettySize=auto;html=1;strokeWidth=2;" parent="1" edge="1">
                    <mxGeometry relative="1" as="geometry">
                        <mxPoint x="3100" y="1590" as="targetPoint"/>
                        <mxPoint x="3100" y="1650" as="sourcePoint"/>
                    </mxGeometry>
                </mxCell>
                <mxCell id="231" value="Submit L1" style="text;html=1;align=center;verticalAlign=middle;whiteSpace=wrap;rounded=0;" parent="1" vertex="1">
                    <mxGeometry x="3040" y="1575" width="60" height="30" as="geometry"/>
                </mxCell>
                <mxCell id="232" value="" style="html=1;aspect=fixed;strokeColor=none;shadow=0;align=center;verticalAlign=top;shape=mxgraph.gcp2.check;fontFamily=Times New Roman;fontSize=20;fillColor=#82B366;" parent="1" vertex="1">
                    <mxGeometry x="3140" y="1585" width="25" height="20" as="geometry"/>
                </mxCell>
                <mxCell id="233" value="" style="shape=card;whiteSpace=wrap;html=1;size=100;rotation=90;fillColor=#dae8fc;strokeColor=#6c8ebf;strokeWidth=2;" parent="1" vertex="1">
                    <mxGeometry x="3195.32" y="1395.32" width="40" height="149.38" as="geometry"/>
                </mxCell>
                <mxCell id="234" style="edgeStyle=orthogonalEdgeStyle;rounded=1;orthogonalLoop=1;jettySize=auto;html=1;strokeWidth=2;" parent="1" edge="1">
                    <mxGeometry relative="1" as="geometry">
                        <mxPoint x="3114.96" y="1430" as="targetPoint"/>
                        <mxPoint x="3114.71" y="1490" as="sourcePoint"/>
                        <Array as="points">
                            <mxPoint x="3115" y="1460"/>
                        </Array>
                    </mxGeometry>
                </mxCell>
                <mxCell id="235" value="Time bin start" style="text;html=1;align=center;verticalAlign=middle;whiteSpace=wrap;rounded=0;" parent="1" vertex="1">
                    <mxGeometry x="3054.71" y="1415" width="60" height="30" as="geometry"/>
                </mxCell>
                <mxCell id="236" style="edgeStyle=orthogonalEdgeStyle;rounded=1;orthogonalLoop=1;jettySize=auto;html=1;strokeWidth=2;" parent="1" edge="1">
                    <mxGeometry relative="1" as="geometry">
                        <mxPoint x="3114.42" y="1189.37" as="targetPoint"/>
                        <mxPoint x="3114.17" y="1249.37" as="sourcePoint"/>
                        <Array as="points">
                            <mxPoint x="3114" y="1219"/>
                        </Array>
                    </mxGeometry>
                </mxCell>
                <mxCell id="237" value="Time bin start" style="text;html=1;align=center;verticalAlign=middle;whiteSpace=wrap;rounded=0;" parent="1" vertex="1">
                    <mxGeometry x="3054.17" y="1174.37" width="60" height="30" as="geometry"/>
                </mxCell>
                <mxCell id="238" value="" style="shape=card;whiteSpace=wrap;html=1;size=100;rotation=90;fillColor=#dae8fc;strokeColor=#6c8ebf;strokeWidth=2;" parent="1" vertex="1">
                    <mxGeometry x="3185" y="1140" width="40" height="178.75" as="geometry"/>
                </mxCell>
                <mxCell id="239" value="..." style="text;html=1;align=center;verticalAlign=middle;whiteSpace=wrap;rounded=0;fontSize=28;" parent="1" vertex="1">
                    <mxGeometry x="3265.0000000000005" y="1204.37" width="60" height="30" as="geometry"/>
                </mxCell>
                <mxCell id="240" value="..." style="text;html=1;align=center;verticalAlign=middle;whiteSpace=wrap;rounded=0;fontSize=28;" parent="1" vertex="1">
                    <mxGeometry x="3265.0000000000005" y="1445" width="60" height="30" as="geometry"/>
                </mxCell>
                <mxCell id="241" value="" style="rounded=0;whiteSpace=wrap;html=1;strokeWidth=2;fillColor=#f5f5f5;strokeColor=#666666;fontFamily=Helvetica;fontSize=19;dashed=1;" parent="1" vertex="1">
                    <mxGeometry x="3235" y="1370" width="120" height="40" as="geometry"/>
                </mxCell>
                <mxCell id="242" value="..." style="text;html=1;align=center;verticalAlign=middle;whiteSpace=wrap;rounded=0;fontSize=19;fontFamily=Helvetica;" parent="1" vertex="1">
                    <mxGeometry x="3265.0000000000005" y="1370" width="60" height="30" as="geometry"/>
                </mxCell>
                <mxCell id="243" value="Server QNPU" style="shape=curlyBracket;whiteSpace=wrap;html=1;rounded=1;labelPosition=left;verticalLabelPosition=middle;align=center;verticalAlign=middle;horizontal=0;fontSize=18;" parent="1" vertex="1">
                    <mxGeometry x="2580" y="1194.37" width="20" height="140.63" as="geometry"/>
                </mxCell>
                <mxCell id="244" value="Client QNPU" style="shape=curlyBracket;whiteSpace=wrap;html=1;rounded=1;labelPosition=left;verticalLabelPosition=middle;align=center;verticalAlign=middle;horizontal=0;fontSize=18;" parent="1" vertex="1">
                    <mxGeometry x="2580" y="1437.19" width="20" height="222.81" as="geometry"/>
                </mxCell>
                <mxCell id="245" value="" style="rounded=0;whiteSpace=wrap;html=1;strokeWidth=2;fillColor=#f5f5f5;strokeColor=#666666;fontFamily=Helvetica;fontSize=19;dashed=1;" parent="1" vertex="1">
                    <mxGeometry x="2755.32" y="1370" width="120" height="40" as="geometry"/>
                </mxCell>
                <mxCell id="246" style="edgeStyle=orthogonalEdgeStyle;rounded=1;orthogonalLoop=1;jettySize=auto;html=1;strokeWidth=2;" parent="1" edge="1">
                    <mxGeometry relative="1" as="geometry">
                        <mxPoint x="2760" y="1590.62" as="targetPoint"/>
                        <mxPoint x="2760" y="1650.62" as="sourcePoint"/>
                    </mxGeometry>
                </mxCell>
                <mxCell id="247" value="Submit L1" style="text;html=1;align=center;verticalAlign=middle;whiteSpace=wrap;rounded=0;" parent="1" vertex="1">
                    <mxGeometry x="2720" y="1569.3799999999999" width="60" height="30" as="geometry"/>
                </mxCell>
                <mxCell id="248" value="" style="endArrow=none;html=1;exitX=1;exitY=1;exitDx=0;exitDy=0;entryX=0.008;entryY=0.861;entryDx=0;entryDy=0;entryPerimeter=0;fillColor=#f8cecc;strokeColor=#b85450;strokeWidth=2;dashed=1;" parent="1" source="229" target="238" edge="1">
                    <mxGeometry width="50" height="50" relative="1" as="geometry">
                        <mxPoint x="3030" y="1430" as="sourcePoint"/>
                        <mxPoint x="3160" y="1180" as="targetPoint"/>
                    </mxGeometry>
                </mxCell>
                <mxCell id="249" value="" style="rounded=0;whiteSpace=wrap;html=1;strokeWidth=0;fillColor=#f8cecc;strokeColor=#b85450;opacity=70;" parent="1" vertex="1">
                    <mxGeometry x="3115" y="1210" width="25" height="40" as="geometry"/>
                </mxCell>
                <mxCell id="250" value="S1" style="rounded=0;whiteSpace=wrap;html=1;strokeWidth=2;fillColor=#d5e8d4;strokeColor=#82b366;" parent="1" vertex="1">
                    <mxGeometry x="3080" y="1288.4500000000003" width="40" height="40" as="geometry"/>
                </mxCell>
                <mxCell id="251" value="" style="html=1;aspect=fixed;strokeColor=none;shadow=0;align=center;verticalAlign=top;shape=mxgraph.gcp2.check;fontFamily=Times New Roman;fontSize=20;fillColor=#82B366;" parent="1" vertex="1">
                    <mxGeometry x="3035" y="1265.3200000000002" width="25" height="20" as="geometry"/>
                </mxCell>
                <mxCell id="252" value="" style="group" parent="1" vertex="1" connectable="0">
                    <mxGeometry x="3120" y="1270.0000000000002" width="20" height="20" as="geometry"/>
                </mxCell>
                <mxCell id="253" value="" style="ellipse;whiteSpace=wrap;html=1;aspect=fixed;strokeWidth=2;fillColor=#82B366;fontFamily=Times New Roman;fontSize=20;align=left;strokeColor=none;" parent="252" vertex="1">
                    <mxGeometry width="20" height="20" as="geometry"/>
                </mxCell>
                <mxCell id="254" value="" style="rounded=0;whiteSpace=wrap;html=1;strokeWidth=2;fontFamily=Times New Roman;fontSize=20;align=left;strokeColor=none;fillColor=#FFFFFF;" parent="252" vertex="1">
                    <mxGeometry x="4" y="7.5" width="12" height="5" as="geometry"/>
                </mxCell>
                <mxCell id="255" value="..." style="text;html=1;align=center;verticalAlign=middle;whiteSpace=wrap;rounded=0;fontSize=19;fontFamily=Helvetica;" parent="1" vertex="1">
                    <mxGeometry x="2785" y="1370" width="60" height="30" as="geometry"/>
                </mxCell>
            </root>
        </mxGraphModel>
    </diagram>
</mxfile>